HIERARCHY
ROOT Hips
{
	OFFSET -0.001795 -0.223333 0.028219
	CHANNELS 6 Xposition Yposition Zposition Zrotation Yrotation Xrotation 
	JOINT LeftUpLeg
	{
		OFFSET 0.069520 -0.091406 -0.006815
		CHANNELS 3 Zrotation Yrotation Xrotation
		JOINT LeftLeg
		{
			OFFSET 0.034277 -0.375199 -0.004496
			CHANNELS 3 Zrotation Yrotation Xrotation
			JOINT LeftFoot
			{
				OFFSET -0.013596 -0.397961 -0.043693
				CHANNELS 3 Zrotation Yrotation Xrotation
				JOINT LeftToe
				{
					OFFSET 0.026358 -0.055791 0.119288
					CHANNELS 3 Zrotation Yrotation Xrotation
					End Site
					{
						OFFSET 0.000000 0.000000 0.000000
					}
				}
			}
		}
	}
	JOINT RightUpLeg
	{
		OFFSET -0.067670 -0.090522 -0.004320
		CHANNELS 3 Zrotation Yrotation Xrotation
		JOINT RightLeg
		{
			OFFSET -0.038290 -0.382569 -0.008850
			CHANNELS 3 Zrotation Yrotation Xrotation
			JOINT RightFoot
			{
				OFFSET 0.015774 -0.398415 -0.042312
				CHANNELS 3 Zrotation Yrotation Xrotation
				JOINT RightToe
				{
					OFFSET -0.025372 -0.048144 0.123348
					CHANNELS 3 Zrotation Yrotation Xrotation
					End Site
					{
						OFFSET 0.000000 0.000000 0.000000
					}
				}
			}
		}
	}
	JOINT Spine
	{
		OFFSET -0.002533 0.108963 -0.026696
		CHANNELS 3 Zrotation Yrotation Xrotation
		JOINT Spine1
		{
			OFFSET 0.005487 0.135180 0.001092
			CHANNELS 3 Zrotation Yrotation Xrotation
			JOINT Spine2
			{
				OFFSET 0.001457 0.052922 0.025425
				CHANNELS 3 Zrotation Yrotation Xrotation
				JOINT Neck
				{
					OFFSET -0.002778 0.213870 -0.042857
					CHANNELS 3 Zrotation Yrotation Xrotation
					JOINT Head
					{
						OFFSET 0.005152 0.064970 0.051349
						CHANNELS 3 Zrotation Yrotation Xrotation
						End Site
						{
							OFFSET 0.000000 0.000000 0.000000
						}
					}
				}
				JOINT LeftShoulder
				{
					OFFSET 0.078845 0.121749 -0.034090
					CHANNELS 3 Zrotation Yrotation Xrotation
					JOINT LeftArm
					{
						OFFSET 0.090977 0.030469 -0.008868
						CHANNELS 3 Zrotation Yrotation Xrotation
						JOINT LeftForeArm
						{
							OFFSET 0.259612 -0.012772 -0.027456
							CHANNELS 3 Zrotation Yrotation Xrotation
							JOINT LeftHand
							{
								OFFSET 0.249234 0.008986 -0.001171
								CHANNELS 3 Zrotation Yrotation Xrotation
								End Site
								{
									OFFSET 0.000000 0.000000 0.000000
								}
							}
						}
					}
				}
				JOINT RightShoulder
				{
					OFFSET -0.081759 0.118833 -0.038615
					CHANNELS 3 Zrotation Yrotation Xrotation
					JOINT RightArm
					{
						OFFSET -0.096012 0.032551 -0.009143
						CHANNELS 3 Zrotation Yrotation Xrotation
						JOINT RightForeArm
						{
							OFFSET -0.253742 -0.013329 -0.021401
							CHANNELS 3 Zrotation Yrotation Xrotation
							JOINT RightHand
							{
								OFFSET -0.255298 0.007772 -0.005559
								CHANNELS 3 Zrotation Yrotation Xrotation
								End Site
								{
									OFFSET 0.000000 0.000000 0.000000
								}
							}
						}
					}
				}
			}
		}
	}
}
MOTION
Frames: 10
Frame Time: 0.050000
0.226953 0.916965 -0.354499 -163.645371 77.366646 -165.434235 -4.313792 -4.017152 15.672438 -11.182480 -4.461634 -5.881848 -8.290543 -3.273332 9.505203 0.000000 0.000000 0.000000 10.802355 -3.186558 -25.305644 -22.058415 -9.049964 36.892112 10.778482 13.525669 -2.035247 0.000000 0.000000 0.000000 0.654616 -0.401624 6.753690 2.273241 -5.422599 2.250286 -5.548962 5.024732 5.189486 6.176778 5.639526 -26.539935 0.000000 0.000000 0.000000 -30.442267 -41.864435 -8.797859 -36.692996 -10.021565 7.735530 -103.264707 -78.494187 77.127406 0.000000 0.000000 0.000000 32.841378 10.154584 32.861678 33.210598 28.921596 -2.244758 -65.161946 66.102602 -35.643152 0.000000 0.000000 0.000000 
0.245303 0.915157 -0.376586 -167.671633 75.436753 -169.606782 -5.198875 -4.298331 16.400489 -11.836781 -4.377392 -4.019258 -10.655766 -3.804141 11.413501 0.000000 0.000000 0.000000 12.407394 -3.350290 -26.162274 -18.389885 -9.605174 35.045302 7.252627 8.655995 -0.829882 0.000000 0.000000 0.000000 0.438898 -0.505564 7.588262 3.262797 -5.656446 1.575980 -5.801937 4.292451 4.944883 5.528897 5.745825 -25.886863 0.000000 0.000000 0.000000 -30.107613 -42.218699 -8.997435 -37.171409 -8.406852 7.439396 -102.458384 -77.856649 75.034601 0.000000 0.000000 0.000000 33.044795 9.899820 33.064542 32.837380 27.903995 -2.550441 -64.973670 66.524280 -36.356252 0.000000 0.000000 0.000000 
0.263485 0.916068 -0.397935 -170.561104 74.344090 -172.063243 -6.361737 -4.422968 17.050817 -12.001241 -4.338521 -3.330010 -13.013179 -3.192132 14.405761 0.000000 0.000000 0.000000 13.231532 -3.347806 -26.377090 -9.673587 -9.727294 29.155293 0.487398 0.445091 4.774160 0.000000 0.000000 0.000000 0.653339 -0.548917 7.795595 3.776867 -5.677824 1.044268 -5.995804 3.627572 4.848674 4.464475 6.207785 -26.456184 0.000000 0.000000 0.000000 -30.251434 -41.178811 -10.088049 -37.073990 -7.490753 7.270435 -100.950431 -77.700997 73.912407 0.000000 0.000000 0.000000 33.370119 10.144672 33.681711 31.833135 27.248699 -2.880232 -66.465080 66.633464 -37.900087 0.000000 0.000000 0.000000 
0.281180 0.917420 -0.417500 -171.861221 73.542535 -172.145365 -7.650529 -4.278356 17.005422 -10.981021 -3.993887 -3.037404 -14.940370 -2.698638 16.911126 0.000000 0.000000 0.000000 14.650017 -3.563274 -27.382156 -3.234250 -8.244312 21.833500 0.157071 3.080405 12.970583 0.000000 0.000000 0.000000 1.631866 -0.579698 7.558181 4.370240 -6.339696 1.410827 -6.947302 3.481779 2.609182 4.973490 5.737679 -25.891683 0.000000 0.000000 0.000000 -29.769223 -41.987846 -8.738884 -37.166630 -6.682897 6.960661 -105.876880 -80.241315 80.815410 0.000000 0.000000 0.000000 33.672375 10.614941 34.228066 30.696139 27.722088 -2.784559 -67.785086 67.531840 -39.752609 0.000000 0.000000 0.000000 
0.299485 0.919334 -0.436285 -171.672894 73.468066 -170.700153 -8.597328 -3.850826 16.294609 -7.923514 -2.754347 -1.741648 -21.525994 -7.228866 20.169164 0.000000 0.000000 0.000000 15.688667 -3.294517 -27.234373 -0.953301 -6.536900 16.923524 2.027110 6.070700 16.458880 0.000000 0.000000 0.000000 3.285854 -0.700736 7.179776 3.078291 -6.359539 2.281142 -6.453034 3.641346 1.468170 4.535400 6.172291 -27.918561 0.000000 0.000000 0.000000 -29.102327 -41.939843 -7.563848 -36.920968 -7.981327 6.915921 -116.781327 -81.534211 93.202017 0.000000 0.000000 0.000000 34.481723 10.734417 34.591911 27.773231 29.766831 -2.695435 -67.101648 65.789605 -38.451761 0.000000 0.000000 0.000000 
0.320286 0.919513 -0.455864 -173.965466 72.911483 -171.280365 -9.160114 -3.091870 14.269168 -6.001651 -2.043442 1.175966 -28.483142 -11.634901 25.115895 0.000000 0.000000 0.000000 15.166495 -3.495239 -27.427698 -0.401871 -5.621133 14.687033 1.939107 5.945621 16.699402 0.000000 0.000000 0.000000 3.936080 -0.689599 6.346761 4.432812 -7.334997 2.722380 -8.331107 4.449113 -0.448244 6.399262 5.400152 -28.180024 0.000000 0.000000 0.000000 -28.157828 -41.632904 -7.099937 -36.993211 -10.359506 7.329515 -116.775038 -83.686120 95.243904 0.000000 0.000000 0.000000 36.119973 10.489831 36.027144 24.183976 31.812876 -3.081018 -66.324472 64.265811 -37.649418 0.000000 0.000000 0.000000 
0.346348 0.918472 -0.477269 -172.936188 73.144557 -168.904121 -8.802015 -2.409581 12.165554 -4.009741 -1.643519 4.947544 -35.409679 -17.033460 30.641159 0.000000 0.000000 0.000000 15.946010 -3.529684 -28.019890 -2.731654 -5.403509 16.656101 4.818005 8.432199 13.993779 0.000000 0.000000 0.000000 4.790138 -0.568161 4.224209 5.023542 -7.955453 3.328531 -8.257829 4.243257 -1.708651 5.221049 5.665336 -27.974250 0.000000 0.000000 0.000000 -28.116796 -40.020075 -7.902102 -37.031785 -9.342727 7.077520 -121.568367 -81.948375 98.484411 0.000000 0.000000 0.000000 36.293127 12.560186 37.420980 22.376669 31.173124 -3.080695 -64.209929 64.091589 -37.177853 0.000000 0.000000 0.000000 
0.377839 0.917533 -0.500267 -174.045802 73.872231 -169.497802 -7.207292 -1.443322 8.434358 -5.383752 -3.085398 14.124789 -39.873157 -22.280906 34.522492 0.000000 0.000000 0.000000 15.188354 -2.566628 -25.461156 -3.771535 -4.594811 15.722710 4.998270 7.270604 9.189144 0.000000 0.000000 0.000000 5.120538 -0.473863 2.280779 5.055182 -8.094754 3.765876 -8.324826 5.778874 -2.022380 5.207854 5.734174 -28.282897 0.000000 0.000000 0.000000 -28.647449 -41.342645 -7.988486 -37.163327 -7.722070 7.038379 -131.597019 -81.770170 108.502327 0.000000 0.000000 0.000000 35.720656 12.521233 37.579912 22.677373 32.067516 -2.900304 -63.975830 65.696638 -37.667078 0.000000 0.000000 0.000000 
0.411205 0.917993 -0.523556 -173.336424 73.988739 -169.531833 -2.945178 -1.216806 4.988049 -11.889435 -6.041908 23.458685 -35.827132 -19.160569 32.240058 0.000000 0.000000 0.000000 14.982917 -1.352452 -21.911762 -5.303396 -4.156922 15.525005 5.167766 5.601061 4.862537 0.000000 0.000000 0.000000 6.157941 -0.603563 1.988642 4.333857 -8.354534 4.780926 -8.152765 6.572460 -3.576149 6.923794 5.038465 -27.138016 0.000000 0.000000 0.000000 -28.728567 -40.937103 -8.373701 -38.423695 -7.741123 7.252455 -133.034111 -80.392967 107.862535 0.000000 0.000000 0.000000 35.377577 12.682710 37.376755 23.196516 32.502629 -2.652533 -60.373174 67.984249 -36.338394 0.000000 0.000000 0.000000 
0.443630 0.920169 -0.546526 -172.963826 75.811655 -169.857148 0.316247 -1.125446 1.306999 -19.268857 -8.348255 30.732719 -28.255685 -13.333233 27.546500 0.000000 0.000000 0.000000 13.926238 0.082204 -16.555484 -4.991349 -2.927128 12.274261 5.451720 3.855802 1.695992 0.000000 0.000000 0.000000 5.597736 -0.474372 1.312114 5.062848 -8.075790 4.270973 -8.511514 7.168672 -3.053669 7.436138 4.745817 -26.451184 0.000000 0.000000 0.000000 -29.741920 -41.380689 -8.794915 -37.500426 -6.071137 7.102630 -135.874796 -79.457323 110.816887 0.000000 0.000000 0.000000 37.606897 12.904667 39.477896 20.352645 32.497874 -3.521174 -58.890676 67.601138 -36.568220 0.000000 0.000000 0.000000 
